<?xml version="1.0"?>
<svg xmlns="http://www.w3.org/2000/svg" id="_x31__x2C_5" enable-background="new 0 0 24 24" height="512px" viewBox="0 0 24 24" width="512px"><g><path d="m12 24c-6.617 0-12-5.383-12-12s5.383-12 12-12 12 5.383 12 12-5.383 12-12 12zm0-22.5c-5.79 0-10.5 4.71-10.5 10.5s4.71 10.5 10.5 10.5 10.5-4.71 10.5-10.5-4.71-10.5-10.5-10.5z" data-original="#000000" class="active-path" data-old_color="#000000" fill="#083040"/><path d="m2.87 17h-1.28c-.414 0-.75-.336-.75-.75s.336-.75.75-.75h1.28c.572 0 1.113-.222 1.524-.625.4-.4.628-.939.636-1.515.012-.875.309-1.695.856-2.372.581-.687 1.351-1.148 2.177-1.313 1.465-.316 2.496-1.59 2.496-3.095v-1.05c0-1.5-.729-2.908-1.95-3.766-.338-.238-.421-.706-.183-1.045s.705-.423 1.045-.183c1.621 1.138 2.589 3.005 2.589 4.994v1.05c0 2.218-1.518 4.095-3.691 4.563-.646.128-1.076.506-1.326.801-.324.4-.505.901-.512 1.436-.013.968-.396 1.877-1.08 2.561-.699.684-1.614 1.059-2.581 1.059z" data-original="#000000" class="active-path" data-old_color="#000000" fill="#083040"/><path d="m13.2 23.93c-.218 0-.434-.095-.582-.277l-1.74-2.14c-1.762-2.18-1.603-5.326.369-7.32 1.366-1.367 3.529-1.823 5.367-1.101l.576.232c.734.291 1.596.024 2.037-.633.674-1.032 2.156-1.402 3.294-.753l1.045.629c.355.214.47.675.256 1.03-.214.354-.674.467-1.029.255l-1.029-.62c-.43-.244-1.022-.116-1.286.288-.837 1.243-2.454 1.743-3.841 1.198l-.577-.232c-1.275-.501-2.8-.186-3.749.765-1.431 1.447-1.547 3.735-.268 5.318l1.739 2.139c.261.321.213.794-.108 1.055-.14.112-.307.167-.474.167z" data-original="#000000" class="active-path" data-old_color="#000000" fill="#083040"/><path d="m19.63 9.74c-1.535 0-2.931-.79-3.731-2.111-1.16-1.946-1.438-4.289-.765-6.434.124-.395.547-.619.94-.491.396.124.615.545.491.94-.546 1.737-.32 3.637.619 5.211.584.966 1.673 1.51 2.797 1.36l2.659-.321c.404-.045.784.243.834.655.05.411-.243.785-.654.834l-2.65.32c-.175.025-.357.037-.54.037z" data-original="#000000" class="active-path" data-old_color="#000000" fill="#083040"/></g> </svg>
